<svg width="24" height="24" viewBox="0 0 24 24" fill="none" xmlns="http://www.w3.org/2000/svg">
<path fill-rule="evenodd" clip-rule="evenodd" d="M4.91384 11.5L19.5 11.5C19.7761 11.5 20 11.7239 20 12C20 12.2761 19.7761 12.5 19.5 12.5L4.91384 12.5C4.98605 12.7047 5.10402 12.8969 5.26777 13.0607L11.8536 19.6464C12.0488 19.8417 12.0488 20.1583 11.8536 20.3536C11.6583 20.5488 11.3417 20.5488 11.1464 20.3536L4.56066 13.7678C3.58435 12.7915 3.58435 11.2085 4.56066 10.2322L11.1464 3.64645C11.3417 3.45118 11.6583 3.45118 11.8536 3.64645C12.0488 3.84171 12.0488 4.15829 11.8536 4.35355L5.26777 10.9393C5.10402 11.1031 4.98605 11.2953 4.91384 11.5Z" fill="white"/>
</svg>
