<svg width="155" height="32" viewBox="0 0 155 32" fill="none" xmlns="http://www.w3.org/2000/svg">
<path d="M18.6961 15.6088C18.3073 15.7049 17.8588 15.7786 17.3608 15.8284C16.8315 15.8813 16.2527 15.9034 15.6386 15.8935C15.0508 15.8842 14.4915 15.8385 13.9287 15.7541C13.3813 15.672 12.9108 15.5431 12.5292 15.3705C12.0182 15.1463 11.6454 14.8145 11.3899 14.3561C11.1248 13.8808 10.9958 13.4042 10.9958 12.8993C10.9958 12.3877 11.1251 11.9011 11.3797 11.4531C11.6342 11.0057 12.0178 10.6672 12.5179 10.4477C13 10.2438 13.5995 10.0989 14.2997 10.017C15.0143 9.93348 15.7672 9.89567 16.5371 9.9052C17.3042 9.91442 18.0602 9.97087 18.7843 10.073C19.4973 10.1735 20.1056 10.3223 20.592 10.515L20.807 10.6001V8.98981L20.7046 8.95179C20.3685 8.82684 19.9607 8.72001 19.4931 8.63413C19.0297 8.54898 18.5216 8.48184 17.9827 8.4346C17.4371 8.38664 16.895 8.35878 16.3254 8.34935C15.7568 8.33992 15.1963 8.34945 14.659 8.37773C14.1159 8.40633 13.6019 8.45419 13.131 8.52017C12.6496 8.58752 12.2386 8.6646 11.9056 8.75049C11.1666 8.96153 10.545 9.286 10.0577 9.71479C9.56977 10.1442 9.1989 10.6336 8.95555 11.1693C8.70897 11.7117 8.58386 12.2843 8.58386 12.8711C8.58386 13.458 8.70897 14.0305 8.95555 14.5729C9.19653 15.1034 9.57087 15.5899 10.0683 16.019C10.5628 16.4458 11.1806 16.7697 11.9074 16.983C12.419 17.1225 13.0365 17.2286 13.795 17.3074C14.3776 17.368 14.9816 17.3984 15.5961 17.3984C15.748 17.3984 15.9007 17.3967 16.0538 17.3929C16.8214 17.3742 17.5788 17.3265 18.3051 17.251C19.0175 17.177 19.6436 17.0645 20.1635 16.9174C20.3092 16.8784 20.4854 16.8199 20.6871 16.743L20.8258 16.6745V12.7986H18.6961V15.6088Z" fill="#EBEFF2"/>
<path d="M24.7985 10.0174L30.9157 10.0265C31.2874 10.0265 31.5601 10.1504 31.7491 10.4051C31.9408 10.6635 32.038 10.9612 32.038 11.2898C32.038 11.6101 31.9376 11.9078 31.7396 12.1745C31.5505 12.4293 31.2781 12.5531 30.9064 12.5531H24.7985V10.0174ZM34.3179 16.7656C34.3083 16.5858 34.2987 16.4414 34.2893 16.3364L34.278 16.2126L34.1549 16.1951C33.5739 16.1121 33.0034 15.9812 32.4595 15.806C31.9152 15.6307 31.4103 15.4251 30.959 15.1948C30.5076 14.9645 30.1064 14.722 29.7667 14.4741C29.5565 14.3207 29.3775 14.1703 29.2316 14.0244H31.2543C31.8842 14.0244 32.4277 13.8868 32.8698 13.6155C33.2966 13.3536 33.6312 13.0152 33.8646 12.6098C34.0906 12.2166 34.2053 11.7724 34.2053 11.2898C34.2053 10.8137 34.0943 10.3705 33.8754 9.97245C33.6533 9.5689 33.3213 9.22966 32.8886 8.96426C32.4528 8.69676 31.9096 8.55935 31.2732 8.55537L22.7159 8.55526V17.1568H24.8362V14.0338H26.5492C26.9188 14.5056 27.3585 14.9376 27.8573 15.3185C28.3965 15.7302 28.989 16.0844 29.6184 16.3713C30.2634 16.6655 30.9598 16.8935 31.747 17.0685C32.5168 17.2396 33.3385 17.3262 34.1893 17.3262H34.3647L34.3454 17.1518C34.3363 17.0704 34.3271 16.9405 34.3179 16.7656Z" fill="#EBEFF2"/>
<path d="M44.7303 14.2H39.6026L42.1579 10.4047L44.7303 14.2ZM47.7777 15.2341C47.225 14.4158 46.6739 13.5996 46.1259 12.7833C45.6794 12.1178 45.2304 11.4501 44.7793 10.779C44.2995 10.0654 43.817 9.34793 43.3321 8.62547L43.2855 8.55592H41.001L40.9544 8.62609C39.9674 10.1116 38.9934 11.5562 38.1707 12.7734C37.2324 14.1616 36.2925 15.5478 35.3771 16.8932L35.212 17.1359L37.5938 17.1582L38.582 15.69H45.6951L46.6734 17.1575H49.075L48.9101 16.9127C48.5326 16.3517 48.1548 15.7924 47.7777 15.2341Z" fill="#EBEFF2"/>
<path d="M59.9283 14.8132L52.3627 8.55568H50.0701V17.1572H52.1905V10.6836L59.9665 17.1212L60.0101 17.1572H62.0581V8.55568H59.9283V14.8132Z" fill="#EBEFF2"/>
<path d="M73.1603 12.8891C73.1603 13.3853 73.0349 13.8426 72.7769 14.2872C72.5219 14.7272 72.1401 15.0502 71.6134 15.2735C71.1662 15.4505 70.6863 15.5673 70.1871 15.6207C69.661 15.6771 69.1373 15.7046 68.5859 15.7046H66.0621V10.0444L68.5952 10.0266C69.1781 10.0266 69.7502 10.0642 70.2956 10.1382C70.8371 10.2115 71.3317 10.3496 71.7667 10.5489C72.2125 10.7501 72.5581 11.0692 72.7941 11.4975C73.0371 11.9384 73.1603 12.4065 73.1603 12.8891ZM74.3088 10.0463C73.8655 9.63251 73.295 9.31065 72.6146 9.09029C72.058 8.9048 71.4235 8.77262 70.7287 8.69753C70.0301 8.62201 69.3027 8.58368 68.5671 8.58368H63.923V17.1855L68.5859 17.1758C69.2836 17.1758 69.909 17.1541 70.4978 17.1094C71.1218 17.0622 71.6956 16.9654 72.201 16.8224C72.8762 16.6418 73.4685 16.3502 73.9613 15.9562C74.4378 15.5748 74.8154 15.1247 75.0837 14.6182C75.3431 14.1281 75.4946 13.5944 75.5341 13.0318C75.5728 12.4834 75.4867 11.944 75.2786 11.4287C75.0734 10.9204 74.7471 10.4553 74.3088 10.0463Z" fill="#EBEFF2"/>
<path d="M99.9333 15.9214C99.3997 15.9214 98.8677 15.8748 98.3525 15.7827C97.8321 15.6898 97.372 15.5555 96.9475 15.3725L96.9105 15.3511C96.3819 15.1222 95.9897 14.7753 95.7446 14.3203C95.4914 13.8499 95.3683 13.3727 95.3683 12.8614C95.3683 12.3595 95.492 11.8717 95.7358 11.411C95.9727 10.9635 96.3195 10.6254 96.763 10.4081C97.2119 10.2023 97.7121 10.048 98.2497 9.94945C98.8273 9.84346 99.3842 9.79203 99.9522 9.79203C100.52 9.79203 101.077 9.84346 101.655 9.94945C102.187 10.0471 102.681 10.2011 103.119 10.4062C103.566 10.6254 103.913 10.9635 104.15 11.4111C104.394 11.8715 104.517 12.3594 104.517 12.8614C104.517 13.3778 104.391 13.8543 104.133 14.3182C103.878 14.7745 103.485 15.1223 102.965 15.3514C102.513 15.5492 102.028 15.6942 101.524 15.7827C100.992 15.876 100.472 15.9214 99.9333 15.9214ZM105.622 9.95531C105.189 9.53208 104.619 9.19409 103.925 8.94974C103.392 8.77232 102.777 8.63774 102.043 8.53855C100.668 8.35285 99.2091 8.34929 97.7321 8.52892C97.0522 8.61166 96.441 8.73954 95.9138 8.90942L95.9116 8.90356C95.2358 9.14152 94.663 9.48233 94.2091 9.91646C93.7667 10.3397 93.4375 10.8239 93.2304 11.3558C93.0256 11.8826 92.9368 12.4424 92.9662 13.0199C92.9953 13.5946 93.1434 14.1476 93.4063 14.6635C93.6691 15.1795 94.0493 15.6486 94.5364 16.0577C95.0284 16.4712 95.6204 16.782 96.2972 16.9823C96.7911 17.1221 97.3466 17.2282 97.9955 17.3068C98.6282 17.3836 99.256 17.4209 99.9146 17.4209C100.538 17.4209 101.179 17.3857 101.822 17.3165C102.44 17.25 103.008 17.1439 103.515 17.0005C104.211 16.7946 104.787 16.4953 105.274 16.0859C105.762 15.6758 106.129 15.2228 106.395 14.7012C106.657 14.1853 106.805 13.6322 106.834 13.0575C106.864 12.4885 106.778 11.9294 106.581 11.3959C106.387 10.8732 106.065 10.3886 105.622 9.95531Z" fill="#EBEFF2"/>
<path d="M110.35 8.55568H108.23V17.1572H118.657V15.686H110.35V8.55568Z" fill="#EBEFF2"/>
<path d="M121.89 13.611H127.671L128.137 12.1396H121.89V10.0269H130.084V8.55568H119.769V17.1572H130.196V15.686H121.89V13.611Z" fill="#EBEFF2"/>
<path d="M131.429 17.1572H133.55V8.55568H131.429V17.1572Z" fill="#EBEFF2"/>
<path d="M137.545 15.686V8.55568H135.424V17.1572H145.851V15.686H137.545Z" fill="#EBEFF2"/>
<path d="M91.9674 13.7528C91.7849 13.4081 91.5158 13.0874 91.1479 12.8389C90.7412 12.5512 90.3061 12.381 89.8177 12.2539C89.3414 12.1301 88.8392 12.0432 88.3252 11.9956C87.7904 11.946 87.3019 11.9218 86.8327 11.9203C86.8327 11.9203 85.811 11.9072 85.326 11.8885C84.8723 11.8711 84.413 11.8273 83.9609 11.7585C83.5441 11.6951 83.1753 11.5774 82.8621 11.4077C82.6737 11.3095 82.5717 11.1625 82.5503 10.9989C82.5288 10.8336 82.6165 10.6665 82.8155 10.4904C83.0382 10.3032 83.3529 10.1347 83.7512 10.0308C84.1794 9.91906 84.6439 9.84679 85.1711 9.80971C85.7251 9.77086 86.2888 9.76447 86.8459 9.79118C87.3789 9.81652 87.9354 9.85821 88.5973 9.92231C89.1752 9.97823 89.7094 10.0514 90.2304 10.1462C90.6793 10.2278 91.1043 10.3165 91.5299 10.4173L91.7232 10.4632V8.89422L91.5864 8.87641C91.351 8.84562 90.9944 8.79566 90.5822 8.73565C90.1785 8.67668 89.6974 8.62127 89.0226 8.55592C88.3851 8.49423 87.7492 8.44972 87.1327 8.42364C86.4618 8.39546 85.7865 8.39546 85.1253 8.42364C84.4368 8.45317 83.7963 8.52377 83.2213 8.63332C82.5981 8.75199 82.0759 8.92627 81.6281 9.16444C81.2124 9.37234 80.888 9.65355 80.6636 10.0003C80.4386 10.348 80.3194 10.7148 80.3092 11.07C80.2988 11.4339 80.384 11.8196 80.5625 12.1567C80.745 12.5014 81.0141 12.7907 81.3821 13.0391C81.7887 13.327 82.224 13.5286 82.7125 13.6556C83.1887 13.7794 83.6908 13.8664 84.205 13.914C84.7395 13.9635 85.228 13.9878 85.6973 13.9893C85.6973 13.9893 86.7191 14.0024 87.2039 14.021C87.6576 14.0385 88.1171 14.0822 88.5692 14.151C88.9858 14.2145 89.3547 14.3321 89.6679 14.5019C89.8563 14.6 89.9583 14.7471 89.9796 14.9108C90.0013 15.0759 89.9136 15.2431 89.7145 15.4193C89.4917 15.6063 89.242 15.7121 88.8292 15.8198C88.3853 15.9356 87.9037 16.0106 87.3571 16.049C86.7829 16.0893 86.1985 16.0959 85.621 16.0682C85.0685 16.0419 84.4915 15.9988 83.8053 15.9324C83.2062 15.8743 82.6524 15.7984 82.1123 15.7002C81.647 15.6155 81.2064 15.5236 80.7652 15.4192L80.5649 15.3716V16.9981L80.7066 17.0166C80.9506 17.0483 81.3204 17.1002 81.7476 17.1625C82.1662 17.2236 82.6649 17.281 83.3644 17.3487C84.0254 17.4127 84.6845 17.4588 85.3235 17.4858C86.0191 17.5151 86.7193 17.5151 87.4047 17.4858C88.1183 17.4552 88.7336 17.3858 89.3086 17.2762C89.9319 17.1576 90.4542 16.9832 90.9018 16.7451C91.3175 16.5372 91.642 16.256 91.8663 15.9092C92.0914 15.5616 92.2106 15.1948 92.2208 14.8396C92.2312 14.4757 92.1459 14.09 91.9674 13.7528Z" fill="#EBEFF2"/>
<path d="M60.4741 23.2772L59.4138 21.4777H60.043L60.7645 22.736L61.4904 21.4777H62.1152L61.0548 23.2772V24.5576H60.4741V23.2772Z" fill="#EBEFF2"/>
<path d="M67.4834 23.3476L67.0699 22.2213L66.6563 23.3476H67.4834ZM67.6594 23.8404H66.4714L66.2075 24.5576H65.6091L66.7928 21.4777H67.3382L68.5262 24.5576H67.9234L67.6594 23.8404Z" fill="#EBEFF2"/>
<path d="M72.3579 23.0176C72.3579 21.9706 73.0794 21.4425 73.8846 21.4425C74.6281 21.4425 75.1912 21.8781 75.2749 22.5161H74.6678C74.6238 22.1772 74.2981 21.9441 73.8846 21.9441C73.3479 21.9441 72.9432 22.3181 72.9432 23.0176C72.9432 23.7172 73.3479 24.0868 73.8846 24.0868C74.3069 24.0868 74.6326 23.8535 74.6854 23.5192H75.2661C75.2045 24.1571 74.6414 24.5928 73.8846 24.5928C73.0662 24.5928 72.3579 24.0648 72.3579 23.0176Z" fill="#EBEFF2"/>
<path d="M82.0562 21.4777V24.5576H81.4754V23.2332H80.1027V24.5576H79.522V21.4777H80.1027V22.7272H81.4754V21.4777H82.0562Z" fill="#EBEFF2"/>
<path d="M87.1057 21.9793H86.173V21.4777H88.6148V21.9793H87.6865V24.5576H87.1057V21.9793Z" fill="#EBEFF2"/>
<path d="M92.5701 23.5236H93.1288C93.1596 23.8667 93.3884 24.0868 93.7579 24.0868C94.088 24.0868 94.3167 23.9548 94.3167 23.682C94.3167 23.022 92.6623 23.4796 92.6623 22.3005C92.6623 21.7945 93.098 21.4425 93.7228 21.4425C94.3739 21.4425 94.8138 21.8165 94.8402 22.3929H94.2859C94.2596 22.1244 94.0483 21.9441 93.7228 21.9441C93.4192 21.9441 93.23 22.0849 93.23 22.3005C93.23 22.9825 94.9062 22.4721 94.9062 23.6732C94.9062 24.2451 94.4355 24.5928 93.7579 24.5928C93.0585 24.5928 92.6009 24.1703 92.5701 23.5236Z" fill="#EBEFF2"/>
</svg>
