<svg width="155" height="32" viewBox="0 0 155 32" fill="none" xmlns="http://www.w3.org/2000/svg">
<path d="M18.6963 19.1C18.3074 19.1961 17.8589 19.2698 17.3609 19.3197C16.8317 19.3725 16.2528 19.3946 15.6387 19.3847C15.0509 19.3754 14.4916 19.3297 13.9288 19.2453C13.3814 19.1632 12.911 19.0344 12.5293 18.8617C12.0183 18.6375 11.6455 18.3057 11.39 17.8473C11.1249 17.372 10.996 16.8954 10.996 16.3905C10.996 15.8789 11.1252 15.3923 11.3798 14.9443C11.6343 14.4969 12.0179 14.1584 12.518 13.9389C13.0001 13.735 13.5996 13.5901 14.2999 13.5082C15.0144 13.4247 15.7673 13.3869 16.5372 13.3964C17.3043 13.4056 18.0603 13.4621 18.7845 13.5642C19.4974 13.6647 20.1057 13.8135 20.5921 14.0062L20.8071 14.0913V12.481L20.7047 12.443C20.3686 12.3181 19.9609 12.2112 19.4932 12.1253C19.0299 12.0402 18.5217 11.9731 17.9828 11.9258C17.4372 11.8778 16.8951 11.85 16.3256 11.8406C15.757 11.8311 15.1964 11.8407 14.6591 11.8689C14.1161 11.8975 13.602 11.9454 13.1311 12.0114C12.6498 12.0787 12.2388 12.1558 11.9057 12.2417C11.1667 12.4527 10.5451 12.7772 10.0578 13.206C9.5699 13.6354 9.19903 14.1249 8.95567 14.6605C8.70909 15.2029 8.58398 15.7755 8.58398 16.3623C8.58398 16.9492 8.70909 17.5218 8.95567 18.0641C9.19665 18.5946 9.571 19.0811 10.0684 19.5102C10.5629 19.937 11.1807 20.2609 11.9075 20.4742C12.4191 20.6137 13.0366 20.7198 13.7951 20.7986C14.3777 20.8592 14.9817 20.8896 15.5962 20.8896C15.7482 20.8896 15.9009 20.8879 16.0539 20.8841C16.8215 20.8655 17.5789 20.8177 18.3052 20.7422C19.0176 20.6682 19.6437 20.5558 20.1636 20.4086C20.3093 20.3696 20.4855 20.3111 20.6872 20.2342L20.826 20.1657V16.2899H18.6963V19.1Z" fill="#EBEFF2"/>
<path d="M24.7986 13.5096L30.9158 13.5187C31.2876 13.5187 31.5602 13.6426 31.7492 13.8973C31.9409 14.1557 32.0381 14.4533 32.0381 14.782C32.0381 15.1023 31.9378 15.3999 31.7397 15.6667C31.5507 15.9215 31.2782 16.0453 30.9065 16.0453H24.7986V13.5096ZM34.318 20.2578C34.3085 20.078 34.2988 19.9335 34.2894 19.8286L34.2781 19.7048L34.155 19.6873C33.574 19.6043 33.0036 19.4733 32.4597 19.2982C31.9153 19.1229 31.4104 18.9173 30.9591 18.687C30.5077 18.4567 30.1066 18.2142 29.7668 17.9663C29.5566 17.8129 29.3776 17.6625 29.2317 17.5166H31.2545C31.8843 17.5166 32.4278 17.379 32.8699 17.1077C33.2967 16.8458 33.6313 16.5074 33.8647 16.102C34.0907 15.7088 34.2054 15.2646 34.2054 14.782C34.2054 14.3059 34.0944 13.8627 33.8755 13.4646C33.6534 13.0611 33.3214 12.7218 32.8888 12.4564C32.453 12.1889 31.9097 12.0515 31.2733 12.0476L22.7161 12.0475V20.649H24.8363V17.526H26.5493C26.9189 17.9978 27.3586 18.4297 27.8575 18.8107C28.3966 19.2224 28.9891 19.5766 29.6185 19.8635C30.2636 20.1577 30.9599 20.3857 31.7471 20.5607C32.5169 20.7317 33.3386 20.8184 34.1894 20.8184H34.3648L34.3455 20.644C34.3364 20.5626 34.3272 20.4327 34.318 20.2578Z" fill="#EBEFF2"/>
<path d="M44.7305 17.6913H39.6027L42.158 13.8959L44.7305 17.6913ZM47.7779 18.7253C47.2252 17.907 46.6741 17.0908 46.1261 16.2745C45.6795 15.609 45.2305 14.9413 44.7794 14.2703C44.2996 13.5566 43.8172 12.8391 43.3322 12.1167L43.2856 12.0471H41.0011L40.9545 12.1173C39.9675 13.6028 38.9935 15.0474 38.1708 16.2646C37.2325 17.6528 36.2926 19.039 35.3772 20.3844L35.2122 20.6271L37.594 20.6494L38.5821 19.1812H45.6952L46.6735 20.6487H49.0751L48.9103 20.4039C48.5327 19.8429 48.1549 19.2837 47.7779 18.7253Z" fill="#EBEFF2"/>
<path d="M59.9285 18.3044L52.3629 12.0469H50.0702V20.6484H52.1906V14.1748L59.9666 20.6124L60.0103 20.6484H62.0582V12.0469H59.9285V18.3044Z" fill="#EBEFF2"/>
<path d="M73.1604 16.3813C73.1604 16.8775 73.035 17.3348 72.7771 17.7794C72.522 18.2194 72.1403 18.5424 71.6135 18.7657C71.1663 18.9427 70.6864 19.0595 70.1873 19.1129C69.6612 19.1693 69.1374 19.1968 68.586 19.1968H66.0622V13.5366L68.5954 13.5188C69.1782 13.5188 69.7503 13.5564 70.2958 13.6304C70.8372 13.7037 71.3318 13.8418 71.7668 14.0411C72.2126 14.2423 72.5583 14.5614 72.7942 14.9897C73.0372 15.4306 73.1604 15.8987 73.1604 16.3813ZM74.3089 13.5385C73.8656 13.1247 73.2951 12.8028 72.6147 12.5825C72.0582 12.397 71.4237 12.2648 70.7288 12.1897C70.0303 12.1142 69.3029 12.0759 68.5672 12.0759H63.9231V20.6777L68.586 20.668C69.2837 20.668 69.9091 20.6463 70.4979 20.6016C71.1219 20.5544 71.6958 20.4576 72.2011 20.3146C72.8764 20.1339 73.4686 19.8424 73.9614 19.4483C74.438 19.067 74.8155 18.6168 75.0839 18.1103C75.3432 17.6203 75.4947 17.0865 75.5342 16.524C75.5729 15.9756 75.4868 15.4362 75.2787 14.9209C75.0735 14.4126 74.7472 13.9475 74.3089 13.5385Z" fill="#EBEFF2"/>
<path d="M99.9334 19.4126C99.3998 19.4126 98.8678 19.366 98.3526 19.2739C97.8322 19.181 97.3721 19.0468 96.9476 18.8637L96.9106 18.8423C96.382 18.6134 95.9898 18.2665 95.7447 17.8115C95.4916 17.3411 95.3684 16.864 95.3684 16.3526C95.3684 15.8507 95.4921 15.3629 95.7359 14.9023C95.9728 14.4547 96.3196 14.1166 96.7632 13.8993C97.2121 13.6935 97.7122 13.5392 98.2498 13.4407C98.8274 13.3347 99.3843 13.2832 99.9523 13.2832C100.52 13.2832 101.077 13.3347 101.655 13.4407C102.187 13.5383 102.681 13.6923 103.119 13.8974C103.566 14.1166 103.913 14.4547 104.15 14.9024C104.394 15.3627 104.517 15.8506 104.517 16.3526C104.517 16.869 104.392 17.3455 104.133 17.8094C103.878 18.2657 103.485 18.6135 102.965 18.8426C102.513 19.0404 102.029 19.1854 101.524 19.2739C100.992 19.3673 100.472 19.4126 99.9334 19.4126ZM105.622 13.4465C105.189 13.0233 104.619 12.6853 103.925 12.441C103.392 12.2635 102.777 12.1289 102.043 12.0298C100.668 11.8441 99.2092 11.8405 97.7322 12.0201C97.0523 12.1029 96.4411 12.2308 95.914 12.4006L95.9118 12.3948C95.2359 12.6327 94.6631 12.9735 94.2092 13.4077C93.7668 13.8309 93.4376 14.3151 93.2305 14.8471C93.0258 15.3738 92.937 15.9336 92.9663 16.5111C92.9954 17.0858 93.1435 17.6388 93.4064 18.1547C93.6693 18.6708 94.0495 19.1398 94.5365 19.5489C95.0285 19.9624 95.6205 20.2732 96.2973 20.4735C96.7912 20.6133 97.3468 20.7194 97.9956 20.7981C98.6283 20.8748 99.2561 20.9121 99.9147 20.9121C100.538 20.9121 101.179 20.8769 101.822 20.8077C102.44 20.7412 103.009 20.6351 103.515 20.4917C104.211 20.2858 104.787 19.9866 105.274 19.5771C105.762 19.167 106.129 18.714 106.395 18.1924C106.658 17.6765 106.805 17.1234 106.835 16.5487C106.864 15.9797 106.778 15.4206 106.581 14.8871C106.387 14.3644 106.065 13.8798 105.622 13.4465Z" fill="#EBEFF2"/>
<path d="M110.35 12.0469H108.23V20.6484H118.657V19.1772H110.35V12.0469Z" fill="#EBEFF2"/>
<path d="M121.89 17.1022H127.671L128.137 15.6308H121.89V13.5181H130.084V12.0469H119.769V20.6484H130.196V19.1772H121.89V17.1022Z" fill="#EBEFF2"/>
<path d="M131.43 20.6484H133.55V12.0469H131.43V20.6484Z" fill="#EBEFF2"/>
<path d="M137.545 19.1772V12.0469H135.424V20.6484H145.851V19.1772H137.545Z" fill="#EBEFF2"/>
<path d="M91.9675 17.245C91.785 16.9003 91.516 16.5796 91.148 16.3311C90.7413 16.0434 90.3063 15.8732 89.8178 15.7461C89.3415 15.6223 88.8393 15.5354 88.3253 15.4877C87.7905 15.4382 87.302 15.414 86.8328 15.4124C86.8328 15.4124 85.8111 15.3993 85.3262 15.3807C84.8725 15.3633 84.4131 15.3195 83.961 15.2507C83.5442 15.1873 83.1754 15.0696 82.8623 14.8999C82.6738 14.8017 82.5718 14.6547 82.5505 14.4911C82.5289 14.3258 82.6166 14.1586 82.8156 13.9826C83.0383 13.7954 83.353 13.6269 83.7514 13.523C84.1795 13.4112 84.644 13.339 85.1713 13.3019C85.7252 13.263 86.2889 13.2567 86.846 13.2834C87.379 13.3087 87.9356 13.3504 88.5974 13.4145C89.1753 13.4704 89.7095 13.5436 90.2305 13.6384C90.6794 13.72 91.1045 13.8087 91.53 13.9095L91.7233 13.9554V12.3864L91.5866 12.3686C91.3511 12.3378 90.9945 12.2878 90.5823 12.2278C90.1786 12.1689 89.6975 12.1135 89.0227 12.0481C88.3852 11.9864 87.7493 11.9419 87.1329 11.9158C86.4619 11.8877 85.7866 11.8877 85.1254 11.9158C84.437 11.9454 83.7964 12.016 83.2214 12.1255C82.5982 12.2442 82.076 12.4185 81.6283 12.6566C81.2126 12.8645 80.8881 13.1457 80.6637 13.4925C80.4388 13.8401 80.3195 14.207 80.3093 14.5622C80.2989 14.926 80.3841 15.3118 80.5627 15.6489C80.7451 15.9936 81.0142 16.2829 81.3822 16.5313C81.7888 16.8191 82.2241 17.0208 82.7126 17.1478C83.1888 17.2716 83.6909 17.3585 84.2051 17.4062C84.7396 17.4557 85.2281 17.48 85.6975 17.4815C85.6975 17.4815 86.7193 17.4946 87.204 17.5132C87.6577 17.5307 88.1172 17.5744 88.5693 17.6432C88.986 17.7067 89.3548 17.8243 89.668 17.9941C89.8564 18.0922 89.9584 18.2393 89.9797 18.403C90.0014 18.5681 89.9137 18.7353 89.7146 18.9115C89.4918 19.0985 89.2421 19.2043 88.8293 19.312C88.3854 19.4278 87.9038 19.5028 87.3572 19.5412C86.783 19.5815 86.1986 19.5881 85.6211 19.5604C85.0686 19.5341 84.4916 19.491 83.8054 19.4246C83.2063 19.3665 82.6526 19.2906 82.1124 19.1924C81.6471 19.1077 81.2065 19.0158 80.7653 18.9114L80.565 18.8638V20.4902L80.7067 20.5088C80.9507 20.5405 81.3205 20.5924 81.7478 20.6547C82.1663 20.7157 82.665 20.7731 83.3646 20.8409C84.0256 20.9049 84.6847 20.951 85.3237 20.978C86.0192 21.0073 86.7194 21.0073 87.4049 20.978C88.1184 20.9474 88.7338 20.878 89.3088 20.7684C89.932 20.6498 90.4544 20.4754 90.9019 20.2373C91.3176 20.0294 91.6422 19.7482 91.8664 19.4014C92.0915 19.0538 92.2107 18.687 92.2209 18.3317C92.2313 17.9679 92.1461 17.5821 91.9675 17.245Z" fill="#EBEFF2"/>
</svg>
