<svg width="24" height="24" viewBox="0 0 24 24" fill="none" xmlns="http://www.w3.org/2000/svg">
<path fill-rule="evenodd" clip-rule="evenodd" d="M16.4184 11.7053L16.4089 11.7239L16.4003 11.7429L12.9102 19.4098C12.5548 20.1907 11.4455 20.1907 11.09 19.4098L7.59972 11.743L7.59107 11.724L7.58164 11.7053C7.21121 10.9742 7 10.1384 7 9.24689C7 6.31072 9.2762 4 12 4C14.7238 4 17 6.31072 17 9.24689C17 10.1384 16.7888 10.9742 16.4184 11.7053ZM6 9.24689C6 10.2978 6.24926 11.2882 6.68959 12.1573L10.1799 19.8241C10.8909 21.3859 13.1094 21.3859 13.8204 19.8241L17.3104 12.1572C17.7507 11.2881 18 10.2978 18 9.24689C18 5.79683 15.3137 3 12 3C8.68629 3 6 5.79683 6 9.24689ZM14 9.24655C14 10.4577 13.0669 11.37 12 11.37C10.9331 11.37 10 10.4577 10 9.24655C10 8.03542 10.9331 7.12311 12 7.12311C13.0669 7.12311 14 8.03542 14 9.24655ZM15 9.24655C15 10.9716 13.6569 12.37 12 12.37C10.3431 12.37 9 10.9716 9 9.24655C9 7.52152 10.3431 6.12311 12 6.12311C13.6569 6.12311 15 7.52152 15 9.24655Z" fill="#F76C00"/>
</svg>
